<svg width="145" height="146" viewBox="0 0 145 146" fill="none" xmlns="http://www.w3.org/2000/svg">
<mask id="mask0" mask-type="alpha" maskUnits="userSpaceOnUse" x="0" y="0" width="146" height="147">
<ellipse cx="72.5002" cy="73" rx="72.5" ry="73" fill="#0E0B0B"/>
</mask>
<g mask="url(#mask0)">
<path d="M45.7129 57.0645H50.8984C51.2695 57.0645 51.6309 57.0905 51.9824 57.1426C52.3405 57.1882 52.6758 57.2728 52.9883 57.3965C53.3073 57.5202 53.597 57.6895 53.8574 57.9043C54.1178 58.1126 54.3424 58.3828 54.5312 58.7148C54.7266 59.0469 54.8763 59.444 54.9805 59.9062C55.0846 60.3685 55.1367 60.9121 55.1367 61.5371C55.1367 61.9538 55.1009 62.3281 55.0293 62.6602C54.9642 62.9857 54.873 63.2754 54.7559 63.5293C54.6452 63.7832 54.515 64.0046 54.3652 64.1934C54.222 64.3822 54.0755 64.5449 53.9258 64.6816C53.5677 64.9941 53.1641 65.2122 52.7148 65.3359V65.3555L55.6543 71H52.9785L50.3711 65.8828H48.0566V71H45.7129V57.0645ZM50.8789 63.6758C52.1029 63.6758 52.7148 62.9173 52.7148 61.4004C52.7148 61.0033 52.6693 60.668 52.5781 60.3945C52.4935 60.1146 52.3665 59.89 52.1973 59.7207C52.0345 59.5514 51.8359 59.431 51.6016 59.3594C51.3672 59.2812 51.1068 59.2422 50.8203 59.2422H48.0566V63.6758H50.8789ZM57.4121 65.8438C57.4121 64.9714 57.5065 64.1999 57.6953 63.5293C57.8841 62.8522 58.1771 62.2826 58.5742 61.8203C58.9779 61.3581 59.4857 61.0065 60.0977 60.7656C60.7096 60.5247 61.4421 60.4043 62.2949 60.4043C63.1478 60.4043 63.8802 60.5247 64.4922 60.7656C65.1107 61.0065 65.6185 61.3581 66.0156 61.8203C66.4128 62.2826 66.7057 62.8522 66.8945 63.5293C67.0833 64.1999 67.1777 64.9714 67.1777 65.8438C67.1777 66.7161 67.0833 67.4941 66.8945 68.1777C66.7057 68.8548 66.4128 69.4245 66.0156 69.8867C65.6185 70.349 65.1107 70.7005 64.4922 70.9414C63.8802 71.1823 63.1478 71.3027 62.2949 71.3027C61.4421 71.3027 60.7096 71.1823 60.0977 70.9414C59.4857 70.7005 58.9779 70.349 58.5742 69.8867C58.1771 69.4245 57.8841 68.8548 57.6953 68.1777C57.5065 67.4941 57.4121 66.7161 57.4121 65.8438ZM62.2949 69.3398C62.8092 69.3398 63.2259 69.265 63.5449 69.1152C63.8639 68.959 64.1113 68.7344 64.2871 68.4414C64.4629 68.1419 64.5801 67.7773 64.6387 67.3477C64.7038 66.9115 64.7363 66.4102 64.7363 65.8438C64.7363 65.2839 64.7038 64.7891 64.6387 64.3594C64.5801 63.9232 64.4629 63.5586 64.2871 63.2656C64.1113 62.9661 63.8639 62.7415 63.5449 62.5918C63.2259 62.4355 62.8092 62.3574 62.2949 62.3574C61.7871 62.3574 61.3737 62.4355 61.0547 62.5918C60.7357 62.7415 60.485 62.9661 60.3027 63.2656C60.127 63.5586 60.0065 63.9232 59.9414 64.3594C59.8828 64.7891 59.8535 65.2839 59.8535 65.8438C59.8535 66.4102 59.8828 66.9115 59.9414 67.3477C60.0065 67.7773 60.127 68.1419 60.3027 68.4414C60.485 68.7344 60.7357 68.959 61.0547 69.1152C61.3737 69.265 61.7871 69.3398 62.2949 69.3398ZM69.2383 69.457L74.4531 62.6992V62.6797H69.4336V60.6973H77.6562V62.1621L72.4121 68.9395V68.959H77.7734V71H69.2383V69.457ZM80 68.0801C80 67.4941 80.0846 66.9993 80.2539 66.5957C80.4297 66.1921 80.6641 65.8665 80.957 65.6191C81.2565 65.3717 81.6048 65.1927 82.002 65.082C82.4056 64.9714 82.8385 64.916 83.3008 64.916C83.7695 64.916 84.1927 64.9421 84.5703 64.9941C84.9544 65.0462 85.2865 65.1048 85.5664 65.1699C85.8854 65.2415 86.1751 65.3229 86.4355 65.4141V64.457C86.4355 64.2161 86.4258 64.0143 86.4062 63.8516C86.3932 63.6823 86.3672 63.5358 86.3281 63.4121C86.2891 63.2884 86.2337 63.1842 86.1621 63.0996C86.097 63.015 86.0156 62.9336 85.918 62.8555C85.7096 62.7057 85.4232 62.5983 85.0586 62.5332C84.694 62.4681 84.2188 62.4355 83.6328 62.4355C83.2617 62.4355 82.9004 62.4486 82.5488 62.4746C82.2038 62.4941 81.8945 62.5202 81.6211 62.5527C81.3021 62.5853 80.9993 62.6211 80.7129 62.6602V61.0391C80.9733 60.9349 81.2956 60.8405 81.6797 60.7559C82.0052 60.6842 82.4121 60.6191 82.9004 60.5605C83.3887 60.4954 83.9681 60.4629 84.6387 60.4629C85.0879 60.4629 85.485 60.4824 85.8301 60.5215C86.1816 60.554 86.4909 60.6126 86.7578 60.6973C87.0247 60.7819 87.2591 60.8926 87.4609 61.0293C87.6693 61.166 87.8548 61.3353 88.0176 61.5371C88.1543 61.7064 88.2682 61.8854 88.3594 62.0742C88.4505 62.263 88.5254 62.4844 88.584 62.7383C88.6426 62.9922 88.6816 63.2852 88.7012 63.6172C88.7272 63.9427 88.7402 64.3236 88.7402 64.7598V71H86.7773L86.6016 70.2383C86.3151 70.4401 85.9993 70.6191 85.6543 70.7754C85.3548 70.9056 85.0033 71.026 84.5996 71.1367C84.2025 71.2474 83.763 71.3027 83.2812 71.3027C82.6953 71.3027 82.194 71.2441 81.7773 71.127C81.3607 71.0098 81.0189 70.8242 80.752 70.5703C80.4915 70.3164 80.2995 69.9844 80.1758 69.5742C80.0586 69.1641 80 68.666 80 68.0801ZM82.373 68.0801C82.373 68.3665 82.4089 68.5944 82.4805 68.7637C82.5521 68.9329 82.6562 69.0632 82.793 69.1543C82.9297 69.2389 83.0957 69.2943 83.291 69.3203C83.4928 69.3464 83.7207 69.3594 83.9746 69.3594C84.3066 69.3594 84.6191 69.3301 84.9121 69.2715C85.2116 69.2064 85.4753 69.138 85.7031 69.0664C85.9635 68.9818 86.2077 68.8841 86.4355 68.7734V66.9863C86.2272 66.9473 86.0026 66.9115 85.7617 66.8789C85.5534 66.8464 85.3158 66.8203 85.0488 66.8008C84.7884 66.7747 84.5117 66.7617 84.2188 66.7617C83.8932 66.7617 83.6133 66.778 83.3789 66.8105C83.151 66.8366 82.9622 66.8984 82.8125 66.9961C82.6628 67.0872 82.5521 67.2207 82.4805 67.3965C82.4089 67.5658 82.373 67.7936 82.373 68.0801ZM91.6602 73.9395C91.7513 73.9525 91.8555 73.9622 91.9727 73.9688C92.1745 73.9883 92.4772 73.998 92.8809 73.998C93.1022 73.998 93.2943 73.9753 93.457 73.9297C93.6263 73.8841 93.7695 73.8092 93.8867 73.7051C94.0104 73.6009 94.1178 73.4707 94.209 73.3145C94.3066 73.1582 94.3978 72.9661 94.4824 72.7383L95.1172 71H94.1211L90.5371 60.6973H93.1152L95.7617 68.959H95.8398L98.4961 60.6973H101.055L96.6406 73.1387C96.4583 73.6465 96.2695 74.0729 96.0742 74.418C95.8854 74.7695 95.6771 75.0527 95.4492 75.2676C95.2279 75.4824 94.9837 75.6387 94.7168 75.7363C94.4564 75.834 94.1699 75.8828 93.8574 75.8828C93.4993 75.8828 93.1836 75.8665 92.9102 75.834C92.6432 75.8014 92.4154 75.7624 92.2266 75.7168C92.0117 75.6647 91.8229 75.6061 91.6602 75.541V73.9395Z" fill="#F2994A"/>
<path d="M37.403 100.632C37.403 102.08 37.007 103.172 36.215 103.908C35.431 104.636 34.335 105 32.927 105H30.539V96.432H33.179C34.043 96.432 34.791 96.592 35.423 96.912C36.055 97.232 36.543 97.704 36.887 98.328C37.231 98.944 37.403 99.712 37.403 100.632ZM36.263 100.668C36.263 99.524 35.979 98.688 35.411 98.16C34.851 97.624 34.055 97.356 33.023 97.356H31.619V104.076H32.783C35.103 104.076 36.263 102.94 36.263 100.668ZM44.7526 101.772C44.7526 102.836 44.4806 103.66 43.9366 104.244C43.4006 104.828 42.6726 105.12 41.7526 105.12C41.1846 105.12 40.6766 104.992 40.2286 104.736C39.7886 104.472 39.4406 104.092 39.1846 103.596C38.9286 103.092 38.8006 102.484 38.8006 101.772C38.8006 100.708 39.0686 99.888 39.6046 99.312C40.1406 98.736 40.8686 98.448 41.7886 98.448C42.3726 98.448 42.8846 98.58 43.3246 98.844C43.7726 99.1 44.1206 99.476 44.3686 99.972C44.6246 100.46 44.7526 101.06 44.7526 101.772ZM39.8926 101.772C39.8926 102.532 40.0406 103.136 40.3366 103.584C40.6406 104.024 41.1206 104.244 41.7766 104.244C42.4246 104.244 42.9006 104.024 43.2046 103.584C43.5086 103.136 43.6606 102.532 43.6606 101.772C43.6606 101.012 43.5086 100.416 43.2046 99.984C42.9006 99.552 42.4206 99.336 41.7646 99.336C41.1086 99.336 40.6326 99.552 40.3366 99.984C40.0406 100.416 39.8926 101.012 39.8926 101.772ZM49.0063 105.12C48.4383 105.12 47.9303 105.004 47.4823 104.772C47.0423 104.54 46.6943 104.18 46.4383 103.692C46.1903 103.204 46.0663 102.58 46.0663 101.82C46.0663 101.028 46.1983 100.384 46.4623 99.888C46.7263 99.392 47.0823 99.028 47.5303 98.796C47.9863 98.564 48.5023 98.448 49.0783 98.448C49.4063 98.448 49.7223 98.484 50.0263 98.556C50.3303 98.62 50.5783 98.7 50.7703 98.796L50.4463 99.672C50.2543 99.6 50.0303 99.532 49.7743 99.468C49.5183 99.404 49.2783 99.372 49.0543 99.372C47.7903 99.372 47.1583 100.184 47.1583 101.808C47.1583 102.584 47.3103 103.18 47.6143 103.596C47.9263 104.004 48.3863 104.208 48.9943 104.208C49.3463 104.208 49.6543 104.172 49.9183 104.1C50.1903 104.028 50.4383 103.94 50.6623 103.836V104.772C50.4463 104.884 50.2063 104.968 49.9423 105.024C49.6863 105.088 49.3743 105.12 49.0063 105.12ZM57.5679 98.568V105H56.7039L56.5479 104.148H56.4999C56.2919 104.484 56.0039 104.732 55.6359 104.892C55.2679 105.044 54.8759 105.12 54.4599 105.12C53.6839 105.12 53.0999 104.936 52.7079 104.568C52.3159 104.192 52.1199 103.596 52.1199 102.78V98.568H53.1879V102.708C53.1879 103.732 53.6639 104.244 54.6159 104.244C55.3279 104.244 55.8199 104.044 56.0919 103.644C56.3719 103.244 56.5119 102.668 56.5119 101.916V98.568H57.5679ZM66.6658 98.448C67.3938 98.448 67.9378 98.636 68.2978 99.012C68.6578 99.38 68.8378 99.98 68.8378 100.812V105H67.7938V100.86C67.7938 99.844 67.3578 99.336 66.4858 99.336C65.8618 99.336 65.4138 99.516 65.1418 99.876C64.8778 100.236 64.7458 100.76 64.7458 101.448V105H63.7018V100.86C63.7018 99.844 63.2618 99.336 62.3818 99.336C61.7338 99.336 61.2858 99.536 61.0378 99.936C60.7898 100.336 60.6658 100.912 60.6658 101.664V105H59.6098V98.568H60.4618L60.6178 99.444H60.6778C60.8778 99.108 61.1458 98.86 61.4818 98.7C61.8258 98.532 62.1898 98.448 62.5738 98.448C63.5818 98.448 64.2378 98.808 64.5418 99.528H64.6018C64.8178 99.16 65.1098 98.888 65.4778 98.712C65.8538 98.536 66.2498 98.448 66.6658 98.448ZM73.3087 98.448C73.8607 98.448 74.3327 98.568 74.7247 98.808C75.1247 99.048 75.4287 99.388 75.6367 99.828C75.8527 100.26 75.9607 100.768 75.9607 101.352V101.988H71.5567C71.5727 102.716 71.7567 103.272 72.1087 103.656C72.4687 104.032 72.9687 104.22 73.6087 104.22C74.0167 104.22 74.3767 104.184 74.6887 104.112C75.0087 104.032 75.3367 103.92 75.6727 103.776V104.7C75.3447 104.844 75.0207 104.948 74.7007 105.012C74.3807 105.084 74.0007 105.12 73.5607 105.12C72.9527 105.12 72.4127 104.996 71.9407 104.748C71.4767 104.5 71.1127 104.132 70.8487 103.644C70.5927 103.148 70.4647 102.544 70.4647 101.832C70.4647 101.128 70.5807 100.524 70.8127 100.02C71.0527 99.516 71.3847 99.128 71.8087 98.856C72.2407 98.584 72.7407 98.448 73.3087 98.448ZM73.2967 99.312C72.7927 99.312 72.3927 99.476 72.0967 99.804C71.8087 100.124 71.6367 100.572 71.5807 101.148H74.8567C74.8487 100.604 74.7207 100.164 74.4727 99.828C74.2247 99.484 73.8327 99.312 73.2967 99.312ZM80.6941 98.448C81.4621 98.448 82.0421 98.636 82.4341 99.012C82.8261 99.38 83.0221 99.98 83.0221 100.812V105H81.9781V100.884C81.9781 99.852 81.4981 99.336 80.5381 99.336C79.8261 99.336 79.3341 99.536 79.0621 99.936C78.7901 100.336 78.6541 100.912 78.6541 101.664V105H77.5981V98.568H78.4501L78.6061 99.444H78.6661C78.8741 99.108 79.1621 98.86 79.5301 98.7C79.8981 98.532 80.2861 98.448 80.6941 98.448ZM87.1641 104.256C87.3241 104.256 87.4881 104.244 87.6561 104.22C87.8241 104.188 87.9601 104.156 88.0641 104.124V104.928C87.9521 104.984 87.7921 105.028 87.5841 105.06C87.3761 105.1 87.1761 105.12 86.9841 105.12C86.6481 105.12 86.3361 105.064 86.0481 104.952C85.7681 104.832 85.5401 104.628 85.3641 104.34C85.1881 104.052 85.1001 103.648 85.1001 103.128V99.384H84.1881V98.88L85.1121 98.46L85.5321 97.092H86.1561V98.568H88.0161V99.384H86.1561V103.104C86.1561 103.496 86.2481 103.788 86.4321 103.98C86.6241 104.164 86.8681 104.256 87.1641 104.256ZM91.788 98.46C92.572 98.46 93.152 98.632 93.528 98.976C93.904 99.32 94.092 99.868 94.092 100.62V105H93.324L93.12 104.088H93.072C92.792 104.44 92.496 104.7 92.184 104.868C91.88 105.036 91.456 105.12 90.912 105.12C90.328 105.12 89.844 104.968 89.46 104.664C89.076 104.352 88.884 103.868 88.884 103.212C88.884 102.572 89.136 102.08 89.64 101.736C90.144 101.384 90.92 101.192 91.968 101.16L93.06 101.124V100.74C93.06 100.204 92.944 99.832 92.712 99.624C92.48 99.416 92.152 99.312 91.728 99.312C91.392 99.312 91.072 99.364 90.768 99.468C90.464 99.564 90.18 99.676 89.916 99.804L89.592 99.012C89.872 98.86 90.204 98.732 90.588 98.628C90.972 98.516 91.372 98.46 91.788 98.46ZM93.048 101.856L92.1 101.892C91.3 101.924 90.744 102.052 90.432 102.276C90.128 102.5 89.976 102.816 89.976 103.224C89.976 103.584 90.084 103.848 90.3 104.016C90.524 104.184 90.808 104.268 91.152 104.268C91.696 104.268 92.148 104.12 92.508 103.824C92.868 103.52 93.048 103.056 93.048 102.432V101.856ZM99.0786 98.448C99.1986 98.448 99.3266 98.456 99.4626 98.472C99.6066 98.48 99.7306 98.496 99.8346 98.52L99.7026 99.492C99.5986 99.468 99.4826 99.448 99.3546 99.432C99.2346 99.416 99.1186 99.408 99.0066 99.408C98.6786 99.408 98.3706 99.5 98.0826 99.684C97.7946 99.86 97.5626 100.112 97.3866 100.44C97.2186 100.76 97.1346 101.136 97.1346 101.568V105H96.0786V98.568H96.9426L97.0626 99.744H97.1106C97.3186 99.392 97.5866 99.088 97.9146 98.832C98.2426 98.576 98.6306 98.448 99.0786 98.448ZM101.576 96.156C101.736 96.156 101.876 96.212 101.996 96.324C102.124 96.428 102.188 96.596 102.188 96.828C102.188 97.052 102.124 97.22 101.996 97.332C101.876 97.444 101.736 97.5 101.576 97.5C101.4 97.5 101.252 97.444 101.132 97.332C101.012 97.22 100.952 97.052 100.952 96.828C100.952 96.596 101.012 96.428 101.132 96.324C101.252 96.212 101.4 96.156 101.576 96.156ZM102.092 98.568V105H101.036V98.568H102.092ZM106.613 98.448C107.165 98.448 107.637 98.568 108.029 98.808C108.429 99.048 108.733 99.388 108.941 99.828C109.157 100.26 109.265 100.768 109.265 101.352V101.988H104.861C104.877 102.716 105.061 103.272 105.413 103.656C105.773 104.032 106.273 104.22 106.913 104.22C107.321 104.22 107.681 104.184 107.993 104.112C108.313 104.032 108.641 103.92 108.977 103.776V104.7C108.649 104.844 108.325 104.948 108.005 105.012C107.685 105.084 107.305 105.12 106.865 105.12C106.257 105.12 105.717 104.996 105.245 104.748C104.781 104.5 104.417 104.132 104.153 103.644C103.897 103.148 103.769 102.544 103.769 101.832C103.769 101.128 103.885 100.524 104.117 100.02C104.357 99.516 104.689 99.128 105.113 98.856C105.545 98.584 106.045 98.448 106.613 98.448ZM106.601 99.312C106.097 99.312 105.697 99.476 105.401 99.804C105.113 100.124 104.941 100.572 104.885 101.148H108.161C108.153 100.604 108.025 100.164 107.777 99.828C107.529 99.484 107.137 99.312 106.601 99.312ZM115.091 103.224C115.091 103.848 114.859 104.32 114.395 104.64C113.931 104.96 113.307 105.12 112.523 105.12C112.075 105.12 111.687 105.084 111.359 105.012C111.039 104.94 110.755 104.84 110.507 104.712V103.752C110.763 103.88 111.071 104 111.431 104.112C111.799 104.216 112.171 104.268 112.547 104.268C113.083 104.268 113.471 104.184 113.711 104.016C113.951 103.84 114.071 103.608 114.071 103.32C114.071 103.16 114.027 103.016 113.939 102.888C113.851 102.76 113.691 102.632 113.459 102.504C113.235 102.376 112.911 102.232 112.487 102.072C112.071 101.912 111.715 101.752 111.419 101.592C111.123 101.432 110.895 101.24 110.735 101.016C110.575 100.792 110.495 100.504 110.495 100.152C110.495 99.608 110.715 99.188 111.155 98.892C111.603 98.596 112.187 98.448 112.907 98.448C113.299 98.448 113.663 98.488 113.999 98.568C114.343 98.64 114.663 98.744 114.959 98.88L114.599 99.72C114.327 99.608 114.043 99.512 113.747 99.432C113.451 99.352 113.147 99.312 112.835 99.312C112.403 99.312 112.071 99.384 111.839 99.528C111.615 99.664 111.503 99.852 111.503 100.092C111.503 100.268 111.555 100.42 111.659 100.548C111.763 100.668 111.935 100.788 112.175 100.908C112.423 101.02 112.751 101.156 113.159 101.316C113.567 101.468 113.915 101.624 114.203 101.784C114.491 101.944 114.711 102.14 114.863 102.372C115.015 102.596 115.091 102.88 115.091 103.224Z" fill="#F2994A"/>
<rect x="24.5" y="90.5" width="97" height="22" rx="4.5" stroke="white"/>
</g>
</svg>
