<svg width="121" height="53" viewBox="0 0 121 53" fill="none" xmlns="http://www.w3.org/2000/svg">
<path d="M12.9955 7.27734H19.2181C19.6634 7.27734 20.097 7.30859 20.5189 7.37109C20.9486 7.42578 21.3509 7.52734 21.7259 7.67578C22.1087 7.82422 22.4564 8.02734 22.7689 8.28516C23.0814 8.53516 23.3509 8.85938 23.5775 9.25781C23.8119 9.65625 23.9916 10.1328 24.1166 10.6875C24.2416 11.2422 24.3041 11.8945 24.3041 12.6445C24.3041 13.1445 24.2611 13.5938 24.1752 13.9922C24.097 14.3828 23.9877 14.7305 23.847 15.0352C23.7142 15.3398 23.558 15.6055 23.3783 15.832C23.2064 16.0586 23.0306 16.2539 22.8509 16.418C22.4212 16.793 21.9369 17.0547 21.3978 17.2031V17.2266L24.9252 24H21.7142L18.5853 17.8594H15.808V24H12.9955V7.27734ZM19.1947 15.2109C20.6634 15.2109 21.3978 14.3008 21.3978 12.4805C21.3978 12.0039 21.3431 11.6016 21.2337 11.2734C21.1322 10.9375 20.9798 10.668 20.7767 10.4648C20.5814 10.2617 20.3431 10.1172 20.0619 10.0312C19.7806 9.9375 19.4681 9.89062 19.1244 9.89062H15.808V15.2109H19.1947ZM34.7145 17.8125C34.7145 16.7656 34.8278 15.8398 35.0544 15.0352C35.2809 14.2227 35.6325 13.5391 36.1091 12.9844C36.5934 12.4297 37.2028 12.0078 37.9372 11.7188C38.6716 11.4297 39.5505 11.2852 40.5739 11.2852C41.5973 11.2852 42.4762 11.4297 43.2106 11.7188C43.9528 12.0078 44.5622 12.4297 45.0387 12.9844C45.5153 13.5391 45.8669 14.2227 46.0934 15.0352C46.32 15.8398 46.4333 16.7656 46.4333 17.8125C46.4333 18.8594 46.32 19.793 46.0934 20.6133C45.8669 21.4258 45.5153 22.1094 45.0387 22.6641C44.5622 23.2188 43.9528 23.6406 43.2106 23.9297C42.4762 24.2188 41.5973 24.3633 40.5739 24.3633C39.5505 24.3633 38.6716 24.2188 37.9372 23.9297C37.2028 23.6406 36.5934 23.2188 36.1091 22.6641C35.6325 22.1094 35.2809 21.4258 35.0544 20.6133C34.8278 19.793 34.7145 18.8594 34.7145 17.8125ZM40.5739 22.0078C41.1911 22.0078 41.6911 21.918 42.0739 21.7383C42.4567 21.5508 42.7536 21.2812 42.9645 20.9297C43.1755 20.5703 43.3161 20.1328 43.3864 19.6172C43.4645 19.0938 43.5036 18.4922 43.5036 17.8125C43.5036 17.1406 43.4645 16.5469 43.3864 16.0312C43.3161 15.5078 43.1755 15.0703 42.9645 14.7188C42.7536 14.3594 42.4567 14.0898 42.0739 13.9102C41.6911 13.7227 41.1911 13.6289 40.5739 13.6289C39.9645 13.6289 39.4684 13.7227 39.0856 13.9102C38.7028 14.0898 38.402 14.3594 38.1833 14.7188C37.9723 15.0703 37.8278 15.5078 37.7497 16.0312C37.6794 16.5469 37.6442 17.1406 37.6442 17.8125C37.6442 18.4922 37.6794 19.0938 37.7497 19.6172C37.8278 20.1328 37.9723 20.5703 38.1833 20.9297C38.402 21.2812 38.7028 21.5508 39.0856 21.7383C39.4684 21.918 39.9645 22.0078 40.5739 22.0078ZM56.5859 22.1484L62.8438 14.0391V14.0156H56.8203V11.6367H66.6875V13.3945L60.3945 21.5273V21.5508H66.8281V24H56.5859V22.1484ZM77.18 20.4961C77.18 19.793 77.2816 19.1992 77.4847 18.7148C77.6956 18.2305 77.9769 17.8398 78.3284 17.543C78.6878 17.2461 79.1058 17.0312 79.5823 16.8984C80.0667 16.7656 80.5863 16.6992 81.1409 16.6992C81.7034 16.6992 82.2113 16.7305 82.6644 16.793C83.1253 16.8555 83.5238 16.9258 83.8597 17.0039C84.2425 17.0898 84.5902 17.1875 84.9027 17.2969V16.1484C84.9027 15.8594 84.8909 15.6172 84.8675 15.4219C84.8519 15.2188 84.8206 15.043 84.7738 14.8945C84.7269 14.7461 84.6605 14.6211 84.5745 14.5195C84.4964 14.418 84.3988 14.3203 84.2816 14.2266C84.0316 14.0469 83.6878 13.918 83.2503 13.8398C82.8128 13.7617 82.2425 13.7227 81.5394 13.7227C81.0941 13.7227 80.6605 13.7383 80.2386 13.7695C79.8245 13.793 79.4534 13.8242 79.1253 13.8633C78.7425 13.9023 78.3792 13.9453 78.0355 13.9922V12.0469C78.348 11.9219 78.7347 11.8086 79.1956 11.707C79.5863 11.6211 80.0745 11.543 80.6605 11.4727C81.2464 11.3945 81.9417 11.3555 82.7464 11.3555C83.2855 11.3555 83.762 11.3789 84.1761 11.4258C84.598 11.4648 84.9691 11.5352 85.2894 11.6367C85.6097 11.7383 85.8909 11.8711 86.1331 12.0352C86.3831 12.1992 86.6058 12.4023 86.8011 12.6445C86.9652 12.8477 87.1019 13.0625 87.2113 13.2891C87.3206 13.5156 87.4105 13.7812 87.4808 14.0859C87.5511 14.3906 87.598 14.7422 87.6214 15.1406C87.6527 15.5312 87.6683 15.9883 87.6683 16.5117V24H85.3128L85.1019 23.0859C84.7581 23.3281 84.3792 23.543 83.9652 23.7305C83.6058 23.8867 83.1839 24.0312 82.6995 24.1641C82.223 24.2969 81.6956 24.3633 81.1175 24.3633C80.4144 24.3633 79.8128 24.293 79.3128 24.1523C78.8128 24.0117 78.4027 23.7891 78.0823 23.4844C77.7698 23.1797 77.5394 22.7812 77.3909 22.2891C77.2503 21.7969 77.18 21.1992 77.18 20.4961ZM80.0277 20.4961C80.0277 20.8398 80.0706 21.1133 80.1566 21.3164C80.2425 21.5195 80.3675 21.6758 80.5316 21.7852C80.6956 21.8867 80.8948 21.9531 81.1292 21.9844C81.3714 22.0156 81.6448 22.0312 81.9495 22.0312C82.348 22.0312 82.723 21.9961 83.0745 21.9258C83.4339 21.8477 83.7503 21.7656 84.0238 21.6797C84.3363 21.5781 84.6292 21.4609 84.9027 21.3281V19.1836C84.6527 19.1367 84.3831 19.0938 84.0941 19.0547C83.8441 19.0156 83.5589 18.9844 83.2386 18.9609C82.9261 18.9297 82.5941 18.9141 82.2425 18.9141C81.8519 18.9141 81.5159 18.9336 81.2347 18.9727C80.9613 19.0039 80.7347 19.0781 80.555 19.1953C80.3753 19.3047 80.2425 19.4648 80.1566 19.6758C80.0706 19.8789 80.0277 20.1523 80.0277 20.4961ZM98.8522 27.5273C98.9616 27.543 99.0866 27.5547 99.2272 27.5625C99.4694 27.5859 99.8327 27.5977 100.317 27.5977C100.583 27.5977 100.813 27.5703 101.008 27.5156C101.212 27.4609 101.383 27.3711 101.524 27.2461C101.673 27.1211 101.801 26.9648 101.911 26.7773C102.028 26.5898 102.137 26.3594 102.239 26.0859L103.001 24H101.805L97.5045 11.6367H100.598L103.774 21.5508H103.868L107.055 11.6367H110.126L104.829 26.5664C104.61 27.1758 104.383 27.6875 104.149 28.1016C103.923 28.5234 103.673 28.8633 103.399 29.1211C103.133 29.3789 102.84 29.5664 102.52 29.6836C102.208 29.8008 101.864 29.8594 101.489 29.8594C101.059 29.8594 100.68 29.8398 100.352 29.8008C100.032 29.7617 99.7584 29.7148 99.5319 29.6602C99.2741 29.5977 99.0475 29.5273 98.8522 29.4492V27.5273Z" fill="#f2ff41"/>
<path d="M22.2799 42.996C22.2799 44.3233 21.9169 45.3243 21.1909 45.999C20.4722 46.6663 19.4676 47 18.1769 47H15.9879V39.146H18.4079C19.1999 39.146 19.8856 39.2927 20.4649 39.586C21.0442 39.8793 21.4916 40.312 21.8069 40.884C22.1222 41.4487 22.2799 42.1527 22.2799 42.996ZM21.2349 43.029C21.2349 41.9803 20.9746 41.214 20.4539 40.73C19.9406 40.2387 19.2109 39.993 18.2649 39.993H16.9779V46.153H18.0449C20.1716 46.153 21.2349 45.1117 21.2349 43.029ZM30.8761 43.062C30.8761 43.876 30.7367 44.5873 30.4581 45.196C30.1867 45.7973 29.7834 46.2667 29.2481 46.604C28.7127 46.9413 28.0491 47.11 27.2571 47.11C26.4431 47.11 25.7647 46.9413 25.2221 46.604C24.6867 46.2667 24.2871 45.7937 24.0231 45.185C23.7591 44.5763 23.6271 43.865 23.6271 43.051C23.6271 42.2443 23.7591 41.5403 24.0231 40.939C24.2871 40.3377 24.6867 39.8683 25.2221 39.531C25.7647 39.1937 26.4467 39.025 27.2681 39.025C28.0527 39.025 28.7127 39.1937 29.2481 39.531C29.7834 39.861 30.1867 40.3303 30.4581 40.939C30.7367 41.5403 30.8761 42.248 30.8761 43.062ZM24.6721 43.062C24.6721 44.052 24.8811 44.833 25.2991 45.405C25.7171 45.9697 26.3697 46.252 27.2571 46.252C28.1517 46.252 28.8044 45.9697 29.2151 45.405C29.6257 44.833 29.8311 44.052 29.8311 43.062C29.8311 42.072 29.6257 41.2983 29.2151 40.741C28.8044 40.1763 28.1554 39.894 27.2681 39.894C26.3807 39.894 25.7244 40.1763 25.2991 40.741C24.8811 41.2983 24.6721 42.072 24.6721 43.062ZM35.9828 39.905C35.1395 39.905 34.4758 40.1873 33.9918 40.752C33.5078 41.3167 33.2658 42.0903 33.2658 43.073C33.2658 44.0483 33.4895 44.822 33.9368 45.394C34.3915 45.9587 35.0698 46.241 35.9718 46.241C36.3165 46.241 36.6428 46.2117 36.9508 46.153C37.2588 46.0943 37.5595 46.021 37.8528 45.933V46.791C37.5595 46.901 37.2551 46.9817 36.9398 47.033C36.6318 47.0843 36.2615 47.11 35.8288 47.11C35.0295 47.11 34.3621 46.945 33.8268 46.615C33.2915 46.285 32.8881 45.8157 32.6168 45.207C32.3528 44.5983 32.2208 43.8833 32.2208 43.062C32.2208 42.27 32.3638 41.5733 32.6498 40.972C32.9431 40.3633 33.3721 39.8903 33.9368 39.553C34.5015 39.2083 35.1871 39.036 35.9938 39.036C36.8225 39.036 37.5448 39.19 38.1608 39.498L37.7648 40.334C37.5228 40.224 37.2515 40.125 36.9508 40.037C36.6575 39.949 36.3348 39.905 35.9828 39.905ZM45.54 39.146V44.228C45.54 44.7707 45.43 45.262 45.21 45.702C44.99 46.1347 44.6527 46.4793 44.198 46.736C43.7507 46.9853 43.1787 47.11 42.482 47.11C41.5067 47.11 40.7623 46.846 40.249 46.318C39.743 45.7827 39.49 45.0787 39.49 44.206V39.146H40.48V44.239C40.48 44.877 40.6487 45.372 40.986 45.724C41.3307 46.076 41.8477 46.252 42.537 46.252C43.2483 46.252 43.7617 46.065 44.077 45.691C44.3997 45.3097 44.561 44.822 44.561 44.228V39.146H45.54ZM51.0779 47L48.4929 40.114H48.4489C48.4709 40.3413 48.4892 40.6493 48.5039 41.038C48.5186 41.4193 48.5259 41.819 48.5259 42.237V47H47.6129V39.146H49.0759L51.4959 45.581H51.5399L54.0039 39.146H55.4559V47H54.4769V42.171C54.4769 41.7897 54.4842 41.412 54.4989 41.038C54.5209 40.664 54.5392 40.3597 54.5539 40.125H54.5099L51.8919 47H51.0779ZM61.9814 47H57.5924V39.146H61.9814V40.015H58.5824V42.468H61.7834V43.326H58.5824V46.131H61.9814V47ZM69.9307 47H68.7757L64.5737 40.477H64.5297C64.5444 40.7337 64.5627 41.0527 64.5847 41.434C64.6067 41.8153 64.6177 42.2077 64.6177 42.611V47H63.7047V39.146H64.8487L69.0397 45.647H69.0837C69.0764 45.5297 69.0654 45.3537 69.0507 45.119C69.0434 44.8843 69.0324 44.6277 69.0177 44.349C69.0104 44.0703 69.0067 43.8137 69.0067 43.579V39.146H69.9307V47ZM74.5481 47H73.5581V40.015H71.1051V39.146H76.9901V40.015H74.5481V47ZM82.329 47L81.383 44.569H78.27L77.335 47H76.334L79.403 39.113H80.294L83.352 47H82.329ZM81.086 43.689L80.206 41.313C80.184 41.2543 80.1473 41.148 80.096 40.994C80.0447 40.84 79.9933 40.6823 79.942 40.521C79.898 40.3523 79.8613 40.224 79.832 40.136C79.7807 40.3633 79.722 40.587 79.656 40.807C79.59 41.0197 79.535 41.1883 79.491 41.313L78.6 43.689H81.086ZM86.5934 39.146C87.5687 39.146 88.2874 39.333 88.7494 39.707C89.2187 40.0737 89.4534 40.631 89.4534 41.379C89.4534 41.797 89.3764 42.1453 89.2224 42.424C89.0684 42.7027 88.8704 42.9263 88.6284 43.095C88.3937 43.2563 88.1444 43.3847 87.8804 43.48L90.0364 47H88.8814L86.9784 43.755H85.4164V47H84.4264V39.146H86.5934ZM86.5384 40.004H85.4164V42.919H86.5934C87.2314 42.919 87.697 42.7943 87.9904 42.545C88.2837 42.2883 88.4304 41.9143 88.4304 41.423C88.4304 40.9097 88.2764 40.5467 87.9684 40.334C87.6604 40.114 87.1837 40.004 86.5384 40.004ZM93.4801 47H90.6421V46.428L91.5661 46.219V39.938L90.6421 39.718V39.146H93.4801V39.718L92.5561 39.938V46.219L93.4801 46.428V47ZM99.3857 47H94.9967V39.146H99.3857V40.015H95.9867V42.468H99.1877V43.326H95.9867V46.131H99.3857V47ZM105.564 44.899C105.564 45.5957 105.311 46.1383 104.805 46.527C104.299 46.9157 103.617 47.11 102.759 47.11C102.319 47.11 101.912 47.077 101.538 47.011C101.164 46.945 100.852 46.8533 100.603 46.736V45.79C100.867 45.9073 101.193 46.0137 101.582 46.109C101.978 46.2043 102.385 46.252 102.803 46.252C103.39 46.252 103.83 46.1383 104.123 45.911C104.424 45.6837 104.574 45.3757 104.574 44.987C104.574 44.7303 104.519 44.514 104.409 44.338C104.299 44.162 104.108 44.0007 103.837 43.854C103.573 43.7 103.203 43.5387 102.726 43.37C102.059 43.128 101.553 42.831 101.208 42.479C100.871 42.127 100.702 41.6467 100.702 41.038C100.702 40.62 100.808 40.2643 101.021 39.971C101.234 39.6703 101.527 39.4393 101.901 39.278C102.282 39.1167 102.719 39.036 103.21 39.036C103.643 39.036 104.039 39.0763 104.398 39.157C104.757 39.2377 105.084 39.344 105.377 39.476L105.069 40.323C104.798 40.2057 104.501 40.1067 104.178 40.026C103.863 39.9453 103.533 39.905 103.188 39.905C102.697 39.905 102.326 40.0113 102.077 40.224C101.828 40.4293 101.703 40.7043 101.703 41.049C101.703 41.313 101.758 41.533 101.868 41.709C101.978 41.885 102.158 42.0427 102.407 42.182C102.656 42.3213 102.994 42.4717 103.419 42.633C103.881 42.8017 104.27 42.985 104.585 43.183C104.908 43.3737 105.15 43.6047 105.311 43.876C105.48 44.1473 105.564 44.4883 105.564 44.899Z" fill="#f2ff41"/>
<rect x="12.5" y="30.5" width="70" height="20" rx="4.5" stroke="white"/>
</svg>
