<svg width="112" height="55" viewBox="0 0 112 55" fill="none" xmlns="http://www.w3.org/2000/svg">
<path d="M29.2129 6.06445H34.3984C34.7695 6.06445 35.1309 6.09049 35.4824 6.14258C35.8405 6.18815 36.1758 6.27279 36.4883 6.39648C36.8073 6.52018 37.097 6.68945 37.3574 6.9043C37.6178 7.11263 37.8424 7.38281 38.0312 7.71484C38.2266 8.04688 38.3763 8.44401 38.4805 8.90625C38.5846 9.36849 38.6367 9.91211 38.6367 10.5371C38.6367 10.9538 38.6009 11.3281 38.5293 11.6602C38.4642 11.9857 38.373 12.2754 38.2559 12.5293C38.1452 12.7832 38.015 13.0046 37.8652 13.1934C37.722 13.3822 37.5755 13.5449 37.4258 13.6816C37.0677 13.9941 36.6641 14.2122 36.2148 14.3359V14.3555L39.1543 20H36.4785L33.8711 14.8828H31.5566V20H29.2129V6.06445ZM34.3789 12.6758C35.6029 12.6758 36.2148 11.9173 36.2148 10.4004C36.2148 10.0033 36.1693 9.66797 36.0781 9.39453C35.9935 9.11458 35.8665 8.88997 35.6973 8.7207C35.5345 8.55143 35.3359 8.43099 35.1016 8.35938C34.8672 8.28125 34.6068 8.24219 34.3203 8.24219H31.5566V12.6758H34.3789ZM40.9121 14.8438C40.9121 13.9714 41.0065 13.1999 41.1953 12.5293C41.3841 11.8522 41.6771 11.2826 42.0742 10.8203C42.4779 10.3581 42.9857 10.0065 43.5976 9.76562C44.2096 9.52474 44.942 9.4043 45.7949 9.4043C46.6478 9.4043 47.3802 9.52474 47.9922 9.76562C48.6107 10.0065 49.1185 10.3581 49.5156 10.8203C49.9128 11.2826 50.2057 11.8522 50.3945 12.5293C50.5833 13.1999 50.6777 13.9714 50.6777 14.8438C50.6777 15.7161 50.5833 16.4941 50.3945 17.1777C50.2057 17.8548 49.9128 18.4245 49.5156 18.8867C49.1185 19.349 48.6107 19.7005 47.9922 19.9414C47.3802 20.1823 46.6478 20.3027 45.7949 20.3027C44.942 20.3027 44.2096 20.1823 43.5976 19.9414C42.9857 19.7005 42.4779 19.349 42.0742 18.8867C41.6771 18.4245 41.3841 17.8548 41.1953 17.1777C41.0065 16.4941 40.9121 15.7161 40.9121 14.8438ZM45.7949 18.3398C46.3092 18.3398 46.7259 18.265 47.0449 18.1152C47.3639 17.959 47.6113 17.7344 47.7871 17.4414C47.9629 17.1419 48.0801 16.7773 48.1387 16.3477C48.2038 15.9115 48.2363 15.4102 48.2363 14.8438C48.2363 14.2839 48.2038 13.7891 48.1387 13.3594C48.0801 12.9232 47.9629 12.5586 47.7871 12.2656C47.6113 11.9661 47.3639 11.7415 47.0449 11.5918C46.7259 11.4355 46.3092 11.3574 45.7949 11.3574C45.2871 11.3574 44.8737 11.4355 44.5547 11.5918C44.2357 11.7415 43.985 11.9661 43.8027 12.2656C43.6269 12.5586 43.5065 12.9232 43.4414 13.3594C43.3828 13.7891 43.3535 14.2839 43.3535 14.8438C43.3535 15.4102 43.3828 15.9115 43.4414 16.3477C43.5065 16.7773 43.6269 17.1419 43.8027 17.4414C43.985 17.7344 44.2357 17.959 44.5547 18.1152C44.8737 18.265 45.2871 18.3398 45.7949 18.3398ZM52.7383 18.457L57.9531 11.6992V11.6797H52.9336V9.69727H61.1562V11.1621L55.9121 17.9395V17.959H61.2734V20H52.7383V18.457ZM63.5 17.0801C63.5 16.4941 63.5846 15.9993 63.7539 15.5957C63.9297 15.1921 64.1641 14.8665 64.457 14.6191C64.7565 14.3717 65.1048 14.1927 65.5019 14.082C65.9056 13.9714 66.3385 13.916 66.8008 13.916C67.2695 13.916 67.6927 13.9421 68.0703 13.9941C68.4544 14.0462 68.7865 14.1048 69.0664 14.1699C69.3854 14.2415 69.6751 14.3229 69.9355 14.4141V13.457C69.9355 13.2161 69.9258 13.0143 69.9062 12.8516C69.8932 12.6823 69.8672 12.5358 69.8281 12.4121C69.7891 12.2884 69.7337 12.1842 69.6621 12.0996C69.597 12.015 69.5156 11.9336 69.418 11.8555C69.2096 11.7057 68.9232 11.5983 68.5586 11.5332C68.194 11.4681 67.7187 11.4355 67.1328 11.4355C66.7617 11.4355 66.4004 11.4486 66.0488 11.4746C65.7038 11.4941 65.3945 11.5202 65.1211 11.5527C64.8021 11.5853 64.4993 11.6211 64.2129 11.6602V10.0391C64.4733 9.9349 64.7956 9.84049 65.1797 9.75586C65.5052 9.68424 65.9121 9.61914 66.4004 9.56055C66.8887 9.49544 67.4681 9.46289 68.1387 9.46289C68.5879 9.46289 68.985 9.48242 69.3301 9.52148C69.6816 9.55404 69.9909 9.61263 70.2578 9.69727C70.5247 9.7819 70.7591 9.89258 70.9609 10.0293C71.1693 10.166 71.3548 10.3353 71.5176 10.5371C71.6543 10.7064 71.7682 10.8854 71.8594 11.0742C71.9505 11.263 72.0254 11.4844 72.084 11.7383C72.1426 11.9922 72.1816 12.2852 72.2012 12.6172C72.2272 12.9427 72.2402 13.3236 72.2402 13.7598V20H70.2773L70.1016 19.2383C69.8151 19.4401 69.4993 19.6191 69.1543 19.7754C68.8548 19.9056 68.5032 20.026 68.0996 20.1367C67.7025 20.2474 67.263 20.3027 66.7812 20.3027C66.1953 20.3027 65.694 20.2441 65.2773 20.127C64.8607 20.0098 64.5189 19.8242 64.2519 19.5703C63.9915 19.3164 63.7995 18.9844 63.6758 18.5742C63.5586 18.1641 63.5 17.666 63.5 17.0801ZM65.873 17.0801C65.873 17.3665 65.9088 17.5944 65.9805 17.7637C66.0521 17.9329 66.1562 18.0632 66.293 18.1543C66.4297 18.2389 66.5957 18.2943 66.791 18.3203C66.9928 18.3464 67.2207 18.3594 67.4746 18.3594C67.8066 18.3594 68.1191 18.3301 68.4121 18.2715C68.7116 18.2064 68.9753 18.138 69.2031 18.0664C69.4635 17.9818 69.7077 17.8841 69.9355 17.7734V15.9863C69.7272 15.9473 69.5026 15.9115 69.2617 15.8789C69.0534 15.8464 68.8157 15.8203 68.5488 15.8008C68.2884 15.7747 68.0117 15.7617 67.7187 15.7617C67.3932 15.7617 67.1133 15.778 66.8789 15.8105C66.651 15.8366 66.4622 15.8984 66.3125 15.9961C66.1628 16.0872 66.0521 16.2207 65.9805 16.3965C65.9088 16.5658 65.873 16.7936 65.873 17.0801ZM75.1601 22.9395C75.2513 22.9525 75.3555 22.9622 75.4726 22.9688C75.6745 22.9883 75.9772 22.998 76.3809 22.998C76.6022 22.998 76.7943 22.9753 76.957 22.9297C77.1263 22.8841 77.2695 22.8092 77.3867 22.7051C77.5104 22.6009 77.6178 22.4707 77.709 22.3145C77.8066 22.1582 77.8978 21.9661 77.9824 21.7383L78.6172 20H77.6211L74.0371 9.69727H76.6152L79.2617 17.959H79.3398L81.9961 9.69727H84.5547L80.1406 22.1387C79.9583 22.6465 79.7695 23.0729 79.5742 23.418C79.3854 23.7695 79.1771 24.0527 78.9492 24.2676C78.7279 24.4824 78.4837 24.6387 78.2168 24.7363C77.9564 24.834 77.6699 24.8828 77.3574 24.8828C76.9993 24.8828 76.6836 24.8665 76.4101 24.834C76.1432 24.8014 75.9154 24.7624 75.7266 24.7168C75.5117 24.6647 75.3229 24.6061 75.1601 24.541V22.9395Z" fill="#15c799"/>
<path d="M20.903 45.2288C20.903 46.6768 20.507 47.7688 19.715 48.5048C18.931 49.2328 17.835 49.5968 16.427 49.5968H14.039V41.0288H16.679C17.543 41.0288 18.291 41.1888 18.923 41.5088C19.555 41.8288 20.043 42.3008 20.387 42.9248C20.731 43.5408 20.903 44.3088 20.903 45.2288ZM19.763 45.2648C19.763 44.1208 19.479 43.2848 18.911 42.7568C18.351 42.2208 17.555 41.9528 16.523 41.9528H15.119V48.6728H16.283C18.603 48.6728 19.763 47.5368 19.763 45.2648ZM28.2526 46.3688C28.2526 47.4328 27.9806 48.2568 27.4366 48.8408C26.9006 49.4248 26.1726 49.7168 25.2526 49.7168C24.6846 49.7168 24.1766 49.5888 23.7286 49.3328C23.2886 49.0688 22.9406 48.6888 22.6846 48.1928C22.4286 47.6888 22.3006 47.0808 22.3006 46.3688C22.3006 45.3048 22.5686 44.4848 23.1046 43.9088C23.6406 43.3328 24.3686 43.0448 25.2886 43.0448C25.8726 43.0448 26.3846 43.1768 26.8246 43.4408C27.2726 43.6968 27.6206 44.0728 27.8686 44.5688C28.1246 45.0568 28.2526 45.6568 28.2526 46.3688ZM23.3926 46.3688C23.3926 47.1288 23.5406 47.7328 23.8366 48.1808C24.1406 48.6208 24.6206 48.8408 25.2766 48.8408C25.9246 48.8408 26.4006 48.6208 26.7046 48.1808C27.0086 47.7328 27.1606 47.1288 27.1606 46.3688C27.1606 45.6088 27.0086 45.0128 26.7046 44.5808C26.4006 44.1488 25.9206 43.9328 25.2646 43.9328C24.6086 43.9328 24.1326 44.1488 23.8366 44.5808C23.5406 45.0128 23.3926 45.6088 23.3926 46.3688ZM32.5063 49.7168C31.9383 49.7168 31.4303 49.6008 30.9823 49.3688C30.5423 49.1368 30.1943 48.7768 29.9383 48.2888C29.6903 47.8008 29.5663 47.1768 29.5663 46.4168C29.5663 45.6248 29.6983 44.9808 29.9623 44.4848C30.2263 43.9888 30.5823 43.6248 31.0303 43.3928C31.4863 43.1608 32.0023 43.0448 32.5783 43.0448C32.9063 43.0448 33.2223 43.0808 33.5263 43.1528C33.8303 43.2168 34.0783 43.2968 34.2703 43.3928L33.9463 44.2688C33.7543 44.1968 33.5303 44.1288 33.2743 44.0648C33.0183 44.0008 32.7783 43.9688 32.5543 43.9688C31.2903 43.9688 30.6583 44.7808 30.6583 46.4048C30.6583 47.1808 30.8103 47.7768 31.1143 48.1928C31.4263 48.6008 31.8863 48.8048 32.4943 48.8048C32.8463 48.8048 33.1543 48.7688 33.4183 48.6968C33.6903 48.6248 33.9383 48.5368 34.1623 48.4328V49.3688C33.9463 49.4808 33.7063 49.5648 33.4423 49.6208C33.1863 49.6848 32.8743 49.7168 32.5063 49.7168ZM41.0679 43.1648V49.5968H40.2039L40.0479 48.7448H39.9999C39.7919 49.0808 39.5039 49.3288 39.1359 49.4888C38.7679 49.6408 38.3759 49.7168 37.9599 49.7168C37.1839 49.7168 36.5999 49.5328 36.2079 49.1648C35.8159 48.7888 35.6199 48.1928 35.6199 47.3768V43.1648H36.6879V47.3048C36.6879 48.3288 37.1639 48.8408 38.1159 48.8408C38.8279 48.8408 39.3199 48.6408 39.5919 48.2408C39.8719 47.8408 40.0119 47.2648 40.0119 46.5128V43.1648H41.0679ZM50.1658 43.0448C50.8938 43.0448 51.4378 43.2328 51.7978 43.6088C52.1578 43.9768 52.3378 44.5768 52.3378 45.4088V49.5968H51.2938V45.4568C51.2938 44.4408 50.8578 43.9328 49.9858 43.9328C49.3618 43.9328 48.9138 44.1128 48.6418 44.4728C48.3778 44.8328 48.2458 45.3568 48.2458 46.0448V49.5968H47.2018V45.4568C47.2018 44.4408 46.7618 43.9328 45.8818 43.9328C45.2338 43.9328 44.7858 44.1328 44.5378 44.5328C44.2898 44.9328 44.1658 45.5088 44.1658 46.2608V49.5968H43.1098V43.1648H43.9618L44.1178 44.0408H44.1778C44.3778 43.7048 44.6458 43.4568 44.9818 43.2968C45.3258 43.1288 45.6898 43.0448 46.0738 43.0448C47.0818 43.0448 47.7378 43.4048 48.0418 44.1248H48.1018C48.3178 43.7568 48.6098 43.4848 48.9778 43.3088C49.3538 43.1328 49.7498 43.0448 50.1658 43.0448ZM56.8087 43.0448C57.3607 43.0448 57.8327 43.1648 58.2247 43.4048C58.6247 43.6448 58.9287 43.9848 59.1367 44.4248C59.3527 44.8568 59.4607 45.3648 59.4607 45.9488V46.5848H55.0567C55.0727 47.3128 55.2567 47.8688 55.6087 48.2528C55.9687 48.6288 56.4687 48.8168 57.1087 48.8168C57.5167 48.8168 57.8767 48.7808 58.1887 48.7088C58.5087 48.6288 58.8367 48.5168 59.1727 48.3728V49.2968C58.8447 49.4408 58.5207 49.5448 58.2007 49.6088C57.8807 49.6808 57.5007 49.7168 57.0607 49.7168C56.4527 49.7168 55.9127 49.5928 55.4407 49.3448C54.9767 49.0968 54.6127 48.7288 54.3487 48.2408C54.0927 47.7448 53.9647 47.1408 53.9647 46.4288C53.9647 45.7248 54.0807 45.1208 54.3127 44.6168C54.5527 44.1128 54.8847 43.7248 55.3087 43.4528C55.7407 43.1808 56.2407 43.0448 56.8087 43.0448ZM56.7967 43.9088C56.2927 43.9088 55.8927 44.0728 55.5967 44.4008C55.3087 44.7208 55.1367 45.1688 55.0807 45.7448H58.3567C58.3487 45.2008 58.2207 44.7608 57.9727 44.4248C57.7247 44.0808 57.3327 43.9088 56.7967 43.9088ZM64.1941 43.0448C64.9621 43.0448 65.5421 43.2328 65.9341 43.6088C66.3261 43.9768 66.5221 44.5768 66.5221 45.4088V49.5968H65.4781V45.4808C65.4781 44.4488 64.9981 43.9328 64.0381 43.9328C63.3261 43.9328 62.8341 44.1328 62.5621 44.5328C62.2901 44.9328 62.1541 45.5088 62.1541 46.2608V49.5968H61.0981V43.1648H61.9501L62.1061 44.0408H62.1661C62.3741 43.7048 62.6621 43.4568 63.0301 43.2968C63.3981 43.1288 63.7861 43.0448 64.1941 43.0448ZM70.6641 48.8528C70.8241 48.8528 70.9881 48.8408 71.1561 48.8168C71.3241 48.7848 71.4601 48.7528 71.5641 48.7208V49.5248C71.4521 49.5808 71.2921 49.6248 71.0841 49.6568C70.8761 49.6968 70.6761 49.7168 70.4841 49.7168C70.1481 49.7168 69.8361 49.6608 69.5481 49.5488C69.2681 49.4288 69.0401 49.2248 68.8641 48.9368C68.6881 48.6488 68.6001 48.2448 68.6001 47.7248V43.9808H67.6881V43.4768L68.6121 43.0568L69.0321 41.6888H69.6561V43.1648H71.5161V43.9808H69.6561V47.7008C69.6561 48.0928 69.7481 48.3848 69.9321 48.5768C70.1241 48.7608 70.3681 48.8528 70.6641 48.8528ZM75.288 43.0568C76.072 43.0568 76.652 43.2288 77.028 43.5728C77.404 43.9168 77.592 44.4648 77.592 45.2168V49.5968H76.824L76.62 48.6848H76.572C76.292 49.0368 75.996 49.2968 75.684 49.4648C75.38 49.6328 74.956 49.7168 74.412 49.7168C73.828 49.7168 73.344 49.5648 72.96 49.2608C72.576 48.9488 72.384 48.4648 72.384 47.8088C72.384 47.1688 72.636 46.6768 73.14 46.3328C73.644 45.9808 74.42 45.7888 75.468 45.7568L76.56 45.7208V45.3368C76.56 44.8008 76.444 44.4288 76.212 44.2208C75.98 44.0128 75.652 43.9088 75.228 43.9088C74.892 43.9088 74.572 43.9608 74.268 44.0648C73.964 44.1608 73.68 44.2728 73.416 44.4008L73.092 43.6088C73.372 43.4568 73.704 43.3288 74.088 43.2248C74.472 43.1128 74.872 43.0568 75.288 43.0568ZM76.548 46.4528L75.6 46.4888C74.8 46.5208 74.244 46.6488 73.932 46.8728C73.628 47.0968 73.476 47.4128 73.476 47.8208C73.476 48.1808 73.584 48.4448 73.8 48.6128C74.024 48.7808 74.308 48.8648 74.652 48.8648C75.196 48.8648 75.648 48.7168 76.008 48.4208C76.368 48.1168 76.548 47.6528 76.548 47.0288V46.4528ZM82.5786 43.0448C82.6986 43.0448 82.8266 43.0528 82.9626 43.0688C83.1066 43.0768 83.2306 43.0928 83.3346 43.1168L83.2026 44.0888C83.0986 44.0648 82.9826 44.0448 82.8546 44.0288C82.7346 44.0128 82.6186 44.0048 82.5066 44.0048C82.1786 44.0048 81.8706 44.0968 81.5826 44.2808C81.2946 44.4568 81.0626 44.7088 80.8866 45.0368C80.7186 45.3568 80.6346 45.7328 80.6346 46.1648V49.5968H79.5786V43.1648H80.4426L80.5626 44.3408H80.6106C80.8186 43.9888 81.0866 43.6848 81.4146 43.4288C81.7426 43.1728 82.1306 43.0448 82.5786 43.0448ZM85.0756 40.7528C85.2356 40.7528 85.3756 40.8088 85.4956 40.9208C85.6236 41.0248 85.6876 41.1928 85.6876 41.4248C85.6876 41.6488 85.6236 41.8168 85.4956 41.9288C85.3756 42.0408 85.2356 42.0968 85.0756 42.0968C84.8996 42.0968 84.7516 42.0408 84.6316 41.9288C84.5116 41.8168 84.4516 41.6488 84.4516 41.4248C84.4516 41.1928 84.5116 41.0248 84.6316 40.9208C84.7516 40.8088 84.8996 40.7528 85.0756 40.7528ZM85.5916 43.1648V49.5968H84.5356V43.1648H85.5916ZM90.1134 43.0448C90.6654 43.0448 91.1374 43.1648 91.5294 43.4048C91.9294 43.6448 92.2334 43.9848 92.4414 44.4248C92.6574 44.8568 92.7654 45.3648 92.7654 45.9488V46.5848H88.3614C88.3774 47.3128 88.5614 47.8688 88.9134 48.2528C89.2734 48.6288 89.7734 48.8168 90.4134 48.8168C90.8214 48.8168 91.1814 48.7808 91.4934 48.7088C91.8134 48.6288 92.1414 48.5168 92.4774 48.3728V49.2968C92.1494 49.4408 91.8254 49.5448 91.5054 49.6088C91.1854 49.6808 90.8054 49.7168 90.3654 49.7168C89.7574 49.7168 89.2174 49.5928 88.7454 49.3448C88.2814 49.0968 87.9174 48.7288 87.6534 48.2408C87.3974 47.7448 87.2694 47.1408 87.2694 46.4288C87.2694 45.7248 87.3854 45.1208 87.6174 44.6168C87.8574 44.1128 88.1894 43.7248 88.6134 43.4528C89.0454 43.1808 89.5454 43.0448 90.1134 43.0448ZM90.1014 43.9088C89.5974 43.9088 89.1974 44.0728 88.9014 44.4008C88.6134 44.7208 88.4414 45.1688 88.3854 45.7448H91.6614C91.6534 45.2008 91.5254 44.7608 91.2774 44.4248C91.0294 44.0808 90.6374 43.9088 90.1014 43.9088ZM98.5908 47.8208C98.5908 48.4448 98.3588 48.9168 97.8948 49.2368C97.4308 49.5568 96.8068 49.7168 96.0228 49.7168C95.5748 49.7168 95.1868 49.6808 94.8588 49.6088C94.5388 49.5368 94.2548 49.4368 94.0068 49.3088V48.3488C94.2628 48.4768 94.5708 48.5968 94.9308 48.7088C95.2988 48.8128 95.6708 48.8648 96.0468 48.8648C96.5828 48.8648 96.9708 48.7808 97.2108 48.6128C97.4508 48.4368 97.5708 48.2048 97.5708 47.9168C97.5708 47.7568 97.5268 47.6128 97.4388 47.4848C97.3508 47.3568 97.1908 47.2288 96.9588 47.1008C96.7348 46.9728 96.4108 46.8288 95.9868 46.6688C95.5708 46.5088 95.2148 46.3488 94.9188 46.1888C94.6228 46.0288 94.3948 45.8368 94.2348 45.6128C94.0748 45.3888 93.9948 45.1008 93.9948 44.7488C93.9948 44.2048 94.2148 43.7848 94.6548 43.4888C95.1028 43.1928 95.6868 43.0448 96.4068 43.0448C96.7988 43.0448 97.1628 43.0848 97.4988 43.1648C97.8428 43.2368 98.1628 43.3408 98.4588 43.4768L98.0988 44.3168C97.8268 44.2048 97.5428 44.1088 97.2468 44.0288C96.9508 43.9488 96.6468 43.9088 96.3348 43.9088C95.9028 43.9088 95.5708 43.9808 95.3388 44.1248C95.1148 44.2608 95.0028 44.4488 95.0028 44.6888C95.0028 44.8648 95.0548 45.0168 95.1588 45.1448C95.2628 45.2648 95.4348 45.3848 95.6748 45.5048C95.9228 45.6168 96.2508 45.7528 96.6588 45.9128C97.0668 46.0648 97.4148 46.2208 97.7028 46.3808C97.9908 46.5408 98.2108 46.7368 98.3628 46.9688C98.5148 47.1928 98.5908 47.4768 98.5908 47.8208Z" fill="#15c799"/>
<rect x="11.6075" y="35.0968" width="89.7107" height="19.4032" rx="4.5"/>
</svg>
